<svg xmlns="http://www.w3.org/2000/svg" viewBox="0 0 400 280">
  <defs>
    <linearGradient id="bg1" x1="0%" y1="0%" x2="100%" y2="100%">
      <stop offset="0%" style="stop-color:#1a1a2e"/>
      <stop offset="100%" style="stop-color:#16213e"/>
    </linearGradient>
  </defs>
  <rect width="400" height="280" fill="url(#bg1)"/>
  <rect x="20" y="20" width="360" height="40" rx="8" fill="#0f3460" opacity="0.8"/>
  <circle cx="45" cy="40" r="8" fill="#e94560"/>
  <circle cx="70" cy="40" r="8" fill="#f97316"/>
  <circle cx="95" cy="40" r="8" fill="#22c55e"/>
  <rect x="200" y="30" width="80" height="20" rx="4" fill="#1a1a2e"/>
  <rect x="290" y="30" width="80" height="20" rx="4" fill="#f97316"/>
  <rect x="20" y="80" width="180" height="180" rx="12" fill="#0f3460"/>
  <rect x="40" y="100" width="140" height="80" rx="8" fill="#1a1a2e"/>
  <rect x="40" y="190" width="100" height="16" rx="4" fill="#e94560"/>
  <rect x="40" y="215" width="140" height="12" rx="3" fill="#1a1a2e"/>
  <rect x="40" y="235" width="80" height="16" rx="4" fill="#f97316"/>
  <rect x="220" y="80" width="160" height="80" rx="12" fill="#0f3460"/>
  <rect x="220" y="170" width="160" height="90" rx="12" fill="#0f3460"/>
  <rect x="240" y="100" width="60" height="40" rx="6" fill="#22c55e" opacity="0.3"/>
  <rect x="310" y="100" width="50" height="40" rx="6" fill="#e94560" opacity="0.3"/>
  <text x="240" y="210" font-family="Arial" font-size="24" fill="#f97316">$299</text>
</svg>
