<svg xmlns="http://www.w3.org/2000/svg" viewBox="0 0 400 280"><defs><linearGradient id="bg2" x1="0%" x2="100%" y1="0%" y2="100%"><stop offset="0%" style="stop-color:#0c0c1d"/><stop offset="100%" style="stop-color:#1a1a3e"/></linearGradient></defs><rect width="400" height="280" fill="url(#bg2)"/><rect width="60" height="240" x="20" y="20" fill="#1e1e3f" rx="8"/><circle cx="50" cy="50" r="15" fill="#8b5cf6"/><rect width="30" height="30" x="35" y="80" fill="#1a1a2e" rx="4"/><rect width="30" height="30" x="35" y="120" fill="#1a1a2e" rx="4"/><rect width="30" height="30" x="35" y="160" fill="#f97316" rx="4"/><rect width="280" height="60" x="100" y="20" fill="#1e1e3f" rx="8"/><rect width="100" height="12" x="120" y="35" fill="#8b5cf6" rx="3"/><rect width="60" height="10" x="120" y="52" fill="#1a1a2e" rx="2"/><rect width="130" height="80" x="100" y="100" fill="#1e1e3f" rx="12"/><path fill="none" stroke="#22c55e" stroke-width="3" d="M130 160 L150 130 L170 145 L190 120 L210 150"/><rect width="130" height="80" x="250" y="100" fill="#1e1e3f" rx="12"/><circle cx="315" cy="140" r="30" fill="none" stroke="#f97316" stroke-width="8"/><circle cx="315" cy="140" r="30" fill="none" stroke="#8b5cf6" stroke-dasharray="60 140" stroke-width="8" transform="rotate(-90 315 140)"/><rect width="280" height="60" x="100" y="200" fill="#1e1e3f" rx="12"/><rect width="240" height="12" x="120" y="215" fill="#1a1a2e" rx="4"/><rect width="180" height="12" x="120" y="215" fill="#22c55e" opacity=".8" rx="4"/><rect width="240" height="12" x="120" y="235" fill="#1a1a2e" rx="4"/><rect width="120" height="12" x="120" y="235" fill="#f97316" opacity=".8" rx="4"/></svg>