<svg xmlns="http://www.w3.org/2000/svg" viewBox="0 0 400 280">
  <defs>
    <linearGradient id="bg2" x1="0%" y1="0%" x2="100%" y2="100%">
      <stop offset="0%" style="stop-color:#0c0c1d"/>
      <stop offset="100%" style="stop-color:#1a1a3e"/>
    </linearGradient>
  </defs>
  <rect width="400" height="280" fill="url(#bg2)"/>
  <rect x="20" y="20" width="60" height="240" rx="8" fill="#1e1e3f"/>
  <circle cx="50" cy="50" r="15" fill="#8b5cf6"/>
  <rect x="35" y="80" width="30" height="30" rx="4" fill="#1a1a2e"/>
  <rect x="35" y="120" width="30" height="30" rx="4" fill="#1a1a2e"/>
  <rect x="35" y="160" width="30" height="30" rx="4" fill="#f97316"/>
  <rect x="100" y="20" width="280" height="60" rx="8" fill="#1e1e3f"/>
  <rect x="120" y="35" width="100" height="12" rx="3" fill="#8b5cf6"/>
  <rect x="120" y="52" width="60" height="10" rx="2" fill="#1a1a2e"/>
  <rect x="100" y="100" width="130" height="80" rx="12" fill="#1e1e3f"/>
  <path d="M130 160 L150 130 L170 145 L190 120 L210 150" stroke="#22c55e" stroke-width="3" fill="none"/>
  <rect x="250" y="100" width="130" height="80" rx="12" fill="#1e1e3f"/>
  <circle cx="315" cy="140" r="30" fill="none" stroke="#f97316" stroke-width="8"/>
  <circle cx="315" cy="140" r="30" fill="none" stroke="#8b5cf6" stroke-width="8" stroke-dasharray="60 140" transform="rotate(-90 315 140)"/>
  <rect x="100" y="200" width="280" height="60" rx="12" fill="#1e1e3f"/>
  <rect x="120" y="215" width="240" height="12" rx="4" fill="#1a1a2e"/>
  <rect x="120" y="215" width="180" height="12" rx="4" fill="#22c55e" opacity="0.8"/>
  <rect x="120" y="235" width="240" height="12" rx="4" fill="#1a1a2e"/>
  <rect x="120" y="235" width="120" height="12" rx="4" fill="#f97316" opacity="0.8"/>
</svg>
