<svg xmlns="http://www.w3.org/2000/svg" viewBox="0 0 400 280"><defs><linearGradient id="bg1" x1="0%" x2="100%" y1="0%" y2="100%"><stop offset="0%" style="stop-color:#1a1a2e"/><stop offset="100%" style="stop-color:#16213e"/></linearGradient></defs><rect width="400" height="280" fill="url(#bg1)"/><rect width="360" height="40" x="20" y="20" fill="#0f3460" opacity=".8" rx="8"/><circle cx="45" cy="40" r="8" fill="#e94560"/><circle cx="70" cy="40" r="8" fill="#f97316"/><circle cx="95" cy="40" r="8" fill="#22c55e"/><rect width="80" height="20" x="200" y="30" fill="#1a1a2e" rx="4"/><rect width="80" height="20" x="290" y="30" fill="#f97316" rx="4"/><rect width="180" height="180" x="20" y="80" fill="#0f3460" rx="12"/><rect width="140" height="80" x="40" y="100" fill="#1a1a2e" rx="8"/><rect width="100" height="16" x="40" y="190" fill="#e94560" rx="4"/><rect width="140" height="12" x="40" y="215" fill="#1a1a2e" rx="3"/><rect width="80" height="16" x="40" y="235" fill="#f97316" rx="4"/><rect width="160" height="80" x="220" y="80" fill="#0f3460" rx="12"/><rect width="160" height="90" x="220" y="170" fill="#0f3460" rx="12"/><rect width="60" height="40" x="240" y="100" fill="#22c55e" opacity=".3" rx="6"/><rect width="50" height="40" x="310" y="100" fill="#e94560" opacity=".3" rx="6"/><text x="240" y="210" fill="#f97316" font-family="Arial" font-size="24">$299</text></svg>