<svg xmlns="http://www.w3.org/2000/svg" viewBox="0 0 400 280">
  <defs>
    <linearGradient id="bg3" x1="0%" y1="0%" x2="100%" y2="100%">
      <stop offset="0%" style="stop-color:#1a0a2e"/>
      <stop offset="100%" style="stop-color:#2d1b4e"/>
    </linearGradient>
  </defs>
  <rect width="400" height="280" fill="url(#bg3)"/>
  <rect x="120" y="20" width="160" height="240" rx="20" fill="#0a0a1a" stroke="#8b5cf6" stroke-width="2"/>
  <rect x="130" y="30" width="140" height="20" rx="10" fill="#1a1a2e"/>
  <circle cx="200" cy="40" r="4" fill="#22c55e"/>
  <rect x="135" y="60" width="130" height="100" rx="8" fill="#1e1e3f"/>
  <circle cx="200" cy="110" r="30" fill="#f97316"/>
  <circle cx="200" cy="110" r="20" fill="#0a0a1a"/>
  <rect x="135" y="170" width="130" height="40" rx="8" fill="#1e1e3f"/>
  <rect x="145" y="180" width="80" height="8" rx="2" fill="#8b5cf6"/>
  <rect x="145" y="195" width="110" height="6" rx="2" fill="#1a1a2e"/>
  <rect x="135" y="220" width="60" height="30" rx="6" fill="#1e1e3f"/>
  <rect x="205" y="220" width="60" height="30" rx="6" fill="#f97316"/>
  <circle cx="165" cy="235" r="8" fill="#e94560"/>
  <circle cx="60" cy="100" r="25" fill="#8b5cf6" opacity="0.3"/>
  <circle cx="340" cy="180" r="35" fill="#f97316" opacity="0.2"/>
  <circle cx="80" cy="200" r="15" fill="#22c55e" opacity="0.3"/>
</svg>
