<svg xmlns="http://www.w3.org/2000/svg" viewBox="0 0 400 280">
  <defs>
    <linearGradient id="bg4" x1="0%" y1="0%" x2="100%" y2="100%">
      <stop offset="0%" style="stop-color:#0a1628"/>
      <stop offset="100%" style="stop-color:#1a2744"/>
    </linearGradient>
    <linearGradient id="ai" x1="0%" y1="0%" x2="100%" y2="100%">
      <stop offset="0%" style="stop-color:#8b5cf6"/>
      <stop offset="100%" style="stop-color:#f97316"/>
    </linearGradient>
  </defs>
  <rect width="400" height="280" fill="url(#bg4)"/>
  <circle cx="200" cy="100" r="50" fill="none" stroke="url(#ai)" stroke-width="3"/>
  <circle cx="200" cy="100" r="35" fill="none" stroke="#8b5cf6" stroke-width="2" opacity="0.5"/>
  <circle cx="200" cy="100" r="20" fill="#8b5cf6"/>
  <text x="192" y="108" font-family="Arial" font-size="20" fill="white">AI</text>
  <path d="M200 50 L200 30" stroke="#f97316" stroke-width="2"/>
  <path d="M200 150 L200 170" stroke="#f97316" stroke-width="2"/>
  <path d="M150 100 L130 100" stroke="#f97316" stroke-width="2"/>
  <path d="M250 100 L270 100" stroke="#f97316" stroke-width="2"/>
  <circle cx="200" cy="25" r="5" fill="#f97316"/>
  <circle cx="200" cy="175" r="5" fill="#f97316"/>
  <circle cx="125" cy="100" r="5" fill="#f97316"/>
  <circle cx="275" cy="100" r="5" fill="#f97316"/>
  <rect x="40" y="200" width="320" height="60" rx="12" fill="#1e2d4a"/>
  <rect x="60" y="215" width="200" height="12" rx="4" fill="#0a1628"/>
  <rect x="60" y="235" width="280" height="8" rx="3" fill="#8b5cf6" opacity="0.5"/>
  <rect x="60" y="235" width="180" height="8" rx="3" fill="#8b5cf6"/>
  <circle cx="330" cy="230" r="15" fill="#22c55e"/>
  <path d="M324 230 L328 234 L336 226" stroke="white" stroke-width="2" fill="none"/>
</svg>
